<svg width="20" height="20" viewBox="0 0 20 20" fill="none" xmlns="http://www.w3.org/2000/svg">
  <path d="M1.875 7.03125L8.90625 0.429688L1.875 7.03125L8.90625 0.429688Q9.375 0 10 0Q10.625 0 11.0938 0.429688L18.125 7.03125Q19.9609 8.75 20 11.2891L20 11.5234Q19.9609 13.6328 18.6719 15.1172Q17.3828 16.6406 15.3516 17.0312Q13.9844 17.2266 12.6953 16.8359Q11.4453 16.4453 10.4688 15.4688L10 15L9.53125 15.4688Q8.55469 16.4453 7.30469 16.8359Q6.01562 17.2266 4.64844 17.0312Q2.61719 16.6406 1.32812 15.1172Q0.0390625 13.6328 0 11.5234L0 11.2891Q0.0390625 8.75 1.875 7.03125Z" fill="#2563EB"/>
</svg> 