<svg width="20" height="17.5" viewBox="0 0 20 17.5" fill="none" xmlns="http://www.w3.org/2000/svg">
  <path d="M2.5 16.25Q2.5 16.7969 2.14844 17.1484Q1.79688 17.5 1.25 17.5Q0.703125 17.5 0.351562 17.1484Q0 16.7969 0 16.25L0 3.125Q0.0390625 1.79688 0.898438 0.898438Q1.79688 0.0390625 3.125 0L18.75 0Q19.2969 0 19.6484 0.351562Q20 0.703125 20 1.25Q20 1.79688 19.6484 2.14844Q19.2969 2.5 18.75 2.5L3.125 2.5Q2.53906 2.53906 2.5 3.125L2.5 16.25ZM18.3984 12.8516Q18.75 13.2422 18.75 13.75Q18.75 14.2578 18.3984 14.6484Q18.0078 15 17.5 15Q16.9922 15 16.6016 14.6484L12.5 10.5078L10.2734 12.7734Q9.88281 13.125 9.375 13.125Q8.86719 13.125 8.47656 12.7734L4.10156 8.39844Q3.75 8.00781 3.75 7.5Q3.75 6.99219 4.10156 6.60156Q4.49219 6.25 5 6.25Q5.50781 6.25 5.89844 6.60156L9.375 10.1172L11.6016 7.85156Q11.9922 7.5 12.5 7.5Q13.0078 7.5 13.3984 7.85156L18.3984 12.8516Z" fill="#9CA3AF"/>
</svg> 