<svg width="22.5" height="20" viewBox="0 0 22.5 20" fill="none" xmlns="http://www.w3.org/2000/svg">
  <path d="M22.461 10Q22.422 9.49219 22.0711 9.14063Q21.7201 8.78906 21.2132 8.75L19.9653 8.75L20.0043 2.5Q19.9653 2.34375 19.9653 2.1875L19.9653 1.5625Q19.9653 0.898438 19.4974 0.46875Q19.0685 0 18.4055 0L17.7816 0Q17.7036 0 17.6646 0Q17.5867 0 17.5087 0L16.2218 0L15.286 0Q14.623 0 14.1941 0.46875Q13.7262 0.898438 13.7262 1.5625L13.7262 2.5L13.7262 5Q13.7262 5.54688 13.3752 5.89844Q13.0243 6.25 12.4783 6.25L9.98267 6.25Q9.43674 6.25 9.08579 5.89844Q8.73484 5.54688 8.73484 5L8.73484 2.5L8.73484 1.5625Q8.73484 0.898438 8.2669 0.46875Q7.83795 0 7.17504 0L6.23917 0L4.99133 0Q4.95234 0 4.91334 0Q4.87435 0 4.83536 0Q4.75737 0 4.67938 0L4.05546 0Q3.39255 0 2.9636 0.46875Q2.49567 0.898438 2.49567 1.5625L2.49567 5.9375Q2.49567 5.97656 2.49567 6.05469L2.49567 8.75L1.24783 8.75Q0.701906 8.78906 0.350953 9.14063Q0 9.49219 0 10.0391Q0 10.5469 0.389948 10.9766L10.3726 19.6875Q10.8016 20.0391 11.2305 20Q11.6984 20 12.0494 19.7266L22.0321 10.9375Q22.5 10.5469 22.461 10Z" fill="#2563EB"/>
</svg> 