<svg width="9" height="12" viewBox="0 0 9 12" fill="none" xmlns="http://www.w3.org/2000/svg">
  <path d="M5.0625 0.28125Q5.69531 1.05469 6.60938 2.36719Q7.52344 3.65625 8.25 5.03906Q8.95312 6.42188 9 7.47656Q8.95312 9.39844 7.6875 10.6641Q6.42188 11.9297 4.5 11.9766Q2.57812 11.9297 1.3125 10.6641Q0.046875 9.39844 0 7.47656Q0.046875 6.42188 0.75 5.03906Q1.47656 3.65625 2.39062 2.36719Q3.30469 1.05469 3.9375 0.28125Q4.17188 0 4.5 0Q4.82812 0 5.0625 0.28125ZM4.5 8.97656Q5.34375 8.95312 5.78906 8.22656Q6.21094 7.47656 5.78906 6.72656Q5.34375 6 4.5 5.97656Q3.65625 6 3.21094 6.72656Q2.78906 7.47656 3.21094 8.22656Q3.65625 8.95312 4.5 8.97656Z" fill="#6B7280"/>
</svg> 