<svg width="17.5" height="20" viewBox="0 0 17.5 20" fill="none" xmlns="http://www.w3.org/2000/svg">
  <path d="M8.75 10Q10.1172 10 11.25 10.6641Q12.3828 11.3281 13.0859 12.5Q13.75 13.6719 13.75 15Q13.75 16.3281 13.0859 17.5Q12.3828 18.6719 11.25 19.3359Q10.1172 20 8.75 20Q7.38281 20 6.25 19.3359Q5.11719 18.6719 4.41406 17.5Q3.75 16.3281 3.75 15Q3.75 13.6719 4.41406 12.5Q5.11719 11.3281 6.25 10.6641Q7.38281 10 8.75 10ZM6.95312 8.125Q4.02344 8.04688 2.03125 6.09375Q0.078125 4.10156 0 1.17188Q0 0.664062 0.351562 0.351562Q0.664062 0 1.17188 0L16.3281 0Q16.8359 0 17.1484 0.351562Q17.5 0.664062 17.5 1.17188Q17.4219 4.10156 15.4688 6.09375Q13.4766 8.04688 10.5469 8.125L6.95312 8.125Z" fill="#9CA3AF"/>
</svg> 