<svg width="14" height="14" viewBox="0 0 14 14" fill="none" xmlns="http://www.w3.org/2000/svg">
  <path d="M11.375 8.3125Q11.3477 6.39844 10.2812 4.94922L13.7539 1.50391Q14 1.23047 14 0.875Q14 0.519531 13.7539 0.246094Q13.4805 0 13.125 0Q12.7695 0 12.4961 0.246094L9.05078 3.71875Q7.60156 2.65234 5.6875 2.625Q3.28125 2.67969 1.66797 4.29297Q0.0546875 5.90625 0 8.3125Q0.0546875 10.7188 1.66797 12.332Q3.28125 13.9453 5.6875 14Q8.09375 13.9453 9.70703 12.332Q11.3203 10.7188 11.375 8.3125ZM5.6875 4.375Q6.75391 4.375 7.65625 4.89453Q8.55859 5.41406 9.10547 6.34375Q9.625 7.27344 9.625 8.3125Q9.625 9.35156 9.10547 10.2812Q8.55859 11.2109 7.65625 11.7305Q6.75391 12.25 5.6875 12.25Q4.62109 12.25 3.71875 11.7305Q2.81641 11.2109 2.26953 10.2812Q1.75 9.35156 1.75 8.3125Q1.75 7.27344 2.26953 6.34375Q2.81641 5.41406 3.71875 4.89453Q4.62109 4.375 5.6875 4.375Z" fill="#9CA3AF"/>
</svg> 