<svg width="7.5" height="10" viewBox="0 0 7.5 10" fill="none" xmlns="http://www.w3.org/2000/svg">
  <path d="M4.19922 8.57422Q4.00391 8.75 3.75 8.75Q3.49609 8.75 3.30078 8.57422L0.175781 5.44922Q0 5.25391 0 5Q0 4.74609 0.175781 4.55078Q0.371094 4.375 0.625 4.375Q0.878906 4.375 1.07422 4.55078L3.125 6.62109L3.125 0.625Q3.125 0.351562 3.30078 0.175781Q3.47656 0 3.75 0Q4.02344 0 4.19922 0.175781Q4.375 0.351562 4.375 0.625L4.375 6.62109L6.42578 4.55078Q6.62109 4.375 6.875 4.375Q7.12891 4.375 7.32422 4.55078Q7.5 4.74609 7.5 5Q7.5 5.25391 7.32422 5.44922L4.19922 8.57422Z" fill="#EF4444"/>
</svg> 