<svg width="7.5" height="10" viewBox="0 0 7.5 10" fill="none" xmlns="http://www.w3.org/2000/svg">
  <path d="M3.30078 0.175781Q3.49609 0 3.75 0Q4.00391 0 4.19922 0.175781L7.32422 3.30078Q7.5 3.49609 7.5 3.75Q7.5 4.00391 7.32422 4.19922Q7.12891 4.375 6.875 4.375Q6.62109 4.375 6.42578 4.19922L4.375 2.12891L4.375 8.125Q4.375 8.39844 4.19922 8.57422Q4.02344 8.75 3.75 8.75Q3.47656 8.75 3.30078 8.57422Q3.125 8.39844 3.125 8.125L3.125 2.12891L1.07422 4.19922Q0.878906 4.375 0.625 4.375Q0.371094 4.375 0.175781 4.19922Q0 4.00391 0 3.75Q0 3.49609 0.175781 3.30078L3.30078 0.175781Z" fill="#22C55E"/>
</svg> 