<svg width="20.6" height="20" viewBox="0 0 20.6 20" fill="none" xmlns="http://www.w3.org/2000/svg">
  <path d="M11.4375 19.2988Q11.0859 19.9629 10.3047 20.002Q9.5625 19.9629 9.17188 19.2988L6.67188 14.1426L1.04688 13.2832Q0.304687 13.166 0.0703125 12.4629Q-0.164063 11.7207 0.382812 11.1738L4.44531 7.15039L3.46875 1.44727Q3.39062 0.705078 3.97656 0.236328Q4.60156 -0.193359 5.30469 0.158203L10.3047 2.81445L15.3438 0.158203Q16.0078 -0.193359 16.6328 0.236328Q17.2578 0.705078 17.1406 1.44727L16.2031 7.15039L20.2656 11.1738Q20.7734 11.7207 20.5781 12.4629Q20.3047 13.166 19.5625 13.2832L13.9375 14.1426L11.4375 19.2988Z" fill="#9CA3AF"/>
</svg> 